<svg width="800" height="800" viewBox="0 0 800 800" fill="none" xmlns="http://www.w3.org/2000/svg">
<rect width="800" height="800" fill="#0A081A" style="fill:#0A081A;fill:color(display-p3 0.0392 0.0314 0.1020);fill-opacity:1;"/>
<path d="M105.003 193.827C105.806 190.9 109.574 183.738 111.098 180.9C121.705 160.822 135.781 142.77 152.68 127.578C184.462 99.0657 224.664 81.627 267.236 77.8871C282.226 76.5864 304.772 77.0624 320.282 77.1925C339.678 77.3553 362.406 76.5295 381.487 77.4555C420.406 87.1786 436.894 124.449 464.223 149.202L464.039 149.836L322.524 149.991C309.797 150.038 297.068 150.012 284.341 149.912C277.206 149.858 270.398 149.803 262.954 149.927C253.047 150.091 246.83 160.565 252.779 168.707C255.767 172.799 261.994 178.325 265.857 182.164L288.263 204.563L363.506 279.967L380.855 297.261C382.061 298.462 387.865 304.184 388.402 305.076L388.243 305.817C386.825 304.806 385.209 302.67 384.007 301.632C380.211 298.355 370.179 287.026 366.649 284.716C365.817 285.042 365.37 285.254 364.575 285.665L362.92 285.053C358.38 288.352 361.535 301.013 359.497 303.336C358.527 303.478 358.28 303.46 357.555 304.13C359.597 306.146 370.093 316.266 371.168 317.744L370.468 317.894L370.197 317.67C367.343 315.261 363.384 310.982 360.619 308.186L342.718 290.09L285.581 232.917C265.321 212.696 250.137 192.779 218.014 195.354C201.229 196.699 187.507 203.09 176.461 216.082C157.235 239.196 160.318 263.87 160.331 291.614L160.27 341.696C159.682 340.478 159.774 340.763 158.404 340.773C156.787 339.685 151.512 330.443 150.146 328.166C128.821 292.612 111.212 251.984 106.627 210.519C106.154 206.244 107.351 196.939 105.003 193.827Z" fill="#92E1B3" style="fill:#92E1B3;fill:color(display-p3 0.5725 0.8824 0.7020);fill-opacity:1;"/>
<path d="M105.003 193.827C107.351 196.939 106.154 206.244 106.627 210.519C111.212 251.984 128.821 292.612 150.146 328.165C151.512 330.443 156.787 339.685 158.404 340.773C159.774 340.763 159.682 340.478 160.27 341.696C160.259 343 160.32 345.562 160.207 346.76C160.604 380.345 160.6 416.18 160.203 449.723C160.076 463.622 160.06 477.528 160.154 491.431C160.174 498.271 159.948 505.4 160.328 512.248C160.642 517.896 164.317 523.875 170.711 523.579C176.132 523.33 178.11 520.217 181.778 516.622C202.182 496.623 221.876 475.947 241.965 455.636L253.914 443.662C255.978 441.57 258.903 438.177 261.136 436.526C279.866 415.753 297.664 407.309 325.858 407.86C324.85 409.444 315.233 415.109 312.68 416.76C306.55 420.726 289.925 435.17 287.157 441.126C284.119 443.647 281.205 446.315 278.27 448.952C273.425 454.768 263.679 463.735 257.996 469.562L205.941 522.446C193.062 535.565 177.496 549.024 172.335 567.425C170.968 569.906 168.968 575.566 168.069 578.348C161.846 597.618 160.924 621.208 166.55 640.786C167.897 645.317 169.457 649.777 171.225 654.159C172.456 657.229 174.776 662.195 175.335 665.257C125.27 629.961 93.3746 578.675 88.7317 517.199C88.0037 507.554 88.1279 498.01 88.1259 488.353L88.1326 450.506C88.1349 415.749 87.7937 380.318 88.197 345.598C87.866 331.155 88.1732 315.905 88.1099 301.393C88.0522 288.079 87.7641 272.569 88.6607 259.414C90.1948 236.762 95.7272 214.558 105.003 193.827Z" fill="#E6A75C" style="fill:#E6A75C;fill:color(display-p3 0.9020 0.6549 0.3608);fill-opacity:1;"/>
<path d="M105.003 193.827C107.351 196.939 106.154 206.244 106.627 210.519C111.212 251.984 128.821 292.612 150.146 328.165C151.512 330.443 156.787 339.685 158.404 340.773C159.774 340.763 159.682 340.478 160.27 341.696C160.259 343 160.32 345.562 160.207 346.76L159.727 349.089L159.518 349.162C159.46 347.726 159.47 345.398 158.731 344.219C140.444 315.03 124.945 285.937 114.767 252.753C111.096 240.862 108.252 228.732 106.253 216.45C105.892 214.216 106.137 207.694 105.609 206.691C101.726 207.426 103.347 206.557 100.786 206.408C99.544 208.685 97.3034 216.853 96.4454 219.749C88.4991 246.568 89.0753 269.634 89.0897 296.875C89.1506 313.96 89.1178 331.045 88.9913 348.13C88.9281 354.049 89.3161 364.737 88.8906 370.064C87.3195 364.212 89.984 351.879 88.197 345.598C87.8659 331.155 88.1732 315.905 88.1099 301.393C88.0521 288.079 87.7641 272.569 88.6607 259.414C90.1948 236.762 95.7272 214.558 105.003 193.827Z" fill="#E2D28C" style="fill:#E2D28C;fill:color(display-p3 0.8863 0.8235 0.5490);fill-opacity:1;"/>
<path d="M261.136 436.526C279.866 415.753 297.664 407.309 325.858 407.86C324.85 409.444 315.233 415.109 312.68 416.76C306.55 420.726 289.925 435.17 287.157 441.126C284.119 443.647 281.205 446.315 278.27 448.952C279.223 446.334 296.966 428.79 300.366 425.576C301.411 424.587 304.425 422.249 304.327 420.761C304.123 417.682 300.311 414.879 298.181 412.92C293.026 411.721 277.901 421.868 273.47 425.412C270.076 428.128 265.178 435.065 261.136 436.526Z" fill="#AE6E65" style="fill:#AE6E65;fill:color(display-p3 0.6824 0.4314 0.3961);fill-opacity:1;"/>
<path d="M606.201 117.99C617.396 116.869 632.538 123.069 642.249 124.291C647.913 128.668 651.641 132.496 656.7 137.68C685.933 168.029 704.573 206.979 709.858 248.744C711.22 259.463 711.798 270.267 711.576 281.07C712.427 292.293 711.743 311.224 711.693 323.1L711.599 396.878L711.782 437.305C711.782 439.926 711.946 451.328 711.658 453.233C708.882 452.618 701.462 448.216 698.702 446.607C673.274 431.715 651.618 411.187 635.414 386.607L635.481 351.441C635.192 342.893 635.453 332.737 635.453 324.091L635.477 269.921C635.481 257.833 636.059 244.922 634.478 233.008C633.014 221.998 624.329 214.518 617.006 207.195C610.858 200.941 604.651 194.744 598.39 188.603L578.97 169.129C574.36 164.508 569.157 158.838 563.902 155.181C564.418 153.987 566.549 153.249 566.916 152.677C570.593 146.83 574.68 141.095 578.658 135.397C583.432 128.555 583.396 126.875 583.806 119.186C586.769 118.79 589.353 118.585 592.312 118.38C596.344 118.099 602.449 118.85 606.201 117.99Z" fill="#3F70D6" style="fill:#3F70D6;fill:color(display-p3 0.2471 0.4392 0.8392);fill-opacity:1;"/>
<path d="M711.576 281.07C712.427 292.293 711.743 311.224 711.693 323.1L711.599 396.878L711.782 437.305C711.782 439.927 711.946 451.328 711.658 453.233C708.882 452.618 701.462 448.216 698.702 446.607C673.274 431.715 651.618 411.187 635.414 386.607L635.481 351.441C636.929 349.44 635.789 346.063 639.154 344.99C641.309 345.665 642.031 347.076 643.151 348.92C658.863 356.85 680.722 357.568 697.855 354.455C701.598 353.775 707.906 349.695 710.455 349.832C710.658 349.651 710.865 349.471 711.068 349.291C711.255 343.665 710.674 336.582 710.721 331.104C710.717 325.6 711.08 320.102 711.033 314.597C710.971 307.295 710.971 299.994 710.955 292.692C710.947 288.802 711.244 284.944 711.576 281.07Z" fill="#5689D8" style="fill:#5689D8;fill:color(display-p3 0.3373 0.5373 0.8471);fill-opacity:1;"/>
<path d="M172.335 567.425C176.246 574.234 213.039 608.728 221.427 616.008C224.163 618.384 231.021 621.757 234.81 622.611C246.942 625.341 263.106 624.547 275.815 624.554L339.498 624.519C349.443 624.48 366.584 623.974 376.086 624.667C377.614 626.486 381.93 629.79 383.937 631.472C387.341 634.363 390.572 637.448 393.612 640.716C398 645.465 402.013 651.907 406.404 656.971C420.82 673.297 439.213 685.626 459.808 692.77C466.233 695.068 472.721 696.63 479.368 698.141C481.094 698.531 486.414 699.255 487.351 700.042C486.426 700.572 486 700.549 484.954 700.673L343.988 700.821L303.378 700.841C286.437 700.841 270.188 701.129 253.425 698.005C231.303 693.884 209.434 685.91 189.937 674.687C184.708 671.68 179.955 669.164 175.336 665.257C174.776 662.195 172.456 657.229 171.225 654.159C169.457 649.777 167.897 645.317 166.55 640.786C160.924 621.208 161.846 597.618 168.069 578.348C168.968 575.566 170.968 569.907 172.335 567.425Z" fill="#CA5C8F" style="fill:#CA5C8F;fill:color(display-p3 0.7922 0.3608 0.5608);fill-opacity:1;"/>
<path d="M325.858 407.86C353.903 409.872 364.448 419.332 383.145 438.388L399.425 454.709L450.884 506.105L518.118 573.264L539.431 594.887C542.937 598.424 548.078 603.103 551.165 606.741C561.744 619.194 566.248 633.654 564.855 649.905C563.461 664.618 556.326 678.193 544.994 687.706C525.793 703.684 508.399 700.864 484.954 700.673C486 700.549 486.426 700.572 487.351 700.042C486.414 699.255 481.094 698.531 479.368 698.141C472.721 696.63 466.233 695.068 459.808 692.77C439.213 685.626 420.82 673.297 406.404 656.971C402.013 651.907 398 645.465 393.612 640.716C390.572 637.448 387.341 634.363 383.937 631.473C381.93 629.79 377.614 626.486 376.086 624.667C406.744 624.437 437.406 624.391 468.064 624.523C482.714 624.562 504.074 625.509 519.02 623.545C522.986 623.023 527.416 614.099 523.888 609.588C518.091 602.179 510.483 595.211 503.675 588.328L457.396 541.642L396.45 480.017C384.485 467.907 372.223 454.892 359.547 443.775C343.634 429.818 318.275 427.458 299.049 435.174C295.191 436.725 290.865 439.179 287.157 441.126C289.925 435.17 306.55 420.726 312.68 416.761C315.233 415.109 324.85 409.444 325.858 407.86Z" fill="#A24771" style="fill:#A24771;fill:color(display-p3 0.6353 0.2784 0.4431);fill-opacity:1;"/>
<path d="M635.414 386.607C651.618 411.187 673.274 431.715 698.702 446.607C701.462 448.216 708.882 452.618 711.658 453.233C711.447 457.646 711.736 464.378 711.771 468.943C711.825 477.972 711.829 487.006 711.775 496.035C711.743 503.214 711.884 510.915 710.447 517.83C703.378 551.855 670.171 575.652 635.426 568.037C615.069 563.576 608.016 556.351 594.326 542.62L576.378 524.717L518.532 466.801L492.835 441.157C490.887 439.225 482.92 431.618 481.82 429.954C481.578 426.92 478.427 426.764 477.182 423.893C477.674 421.872 481.035 420.173 480.848 416.469C480.813 415.748 482.315 411.363 482.94 410.861C483.592 410.336 486.305 407.437 486.89 407.05C489.802 407.002 491.774 410.266 494.299 412.575L494.565 411.755C496.797 413.551 502.387 419.503 504.608 421.743L523.751 440.924L582.631 499.669C590.915 507.928 598.936 516.673 607.813 524.245C616.674 531.806 632.346 527.069 634.591 515.422C635.805 509.123 635.45 502.758 635.446 496.358L635.43 470.447L635.414 386.607Z" fill="#364B95" style="fill:#364B95;fill:color(display-p3 0.2118 0.2941 0.5843);fill-opacity:1;"/>
<path d="M381.487 77.4555L474.918 77.2346L510.14 77.2459C515.917 77.2732 523.571 77.1668 529.251 77.5793C570.995 80.5242 610.651 96.9166 642.249 124.291C632.538 123.069 617.396 116.869 606.201 117.99C602.449 118.85 596.344 118.099 592.312 118.38C589.353 118.585 586.769 118.79 583.806 119.186C583.396 126.875 583.432 128.555 578.658 135.397C574.68 141.095 570.593 146.83 566.916 152.677C566.549 153.249 564.418 153.987 563.902 155.181C550.275 148.937 544.545 149.835 529.899 149.875C521.354 149.94 512.809 149.911 504.265 149.789L464.039 149.836L464.223 149.202C436.894 124.449 420.406 87.1786 381.487 77.4555Z" fill="#517FB0" style="fill:#517FB0;fill:color(display-p3 0.3176 0.4980 0.6902);fill-opacity:1;"/>
<path d="M504.265 149.789C504.413 149.065 504.409 149.005 505.057 148.518C533.939 126.863 570.144 115.477 606.201 117.99C602.449 118.85 596.344 118.099 592.312 118.38C589.353 118.585 586.769 118.79 583.806 119.186C583.396 126.875 583.432 128.555 578.658 135.397C574.68 141.095 570.593 146.83 566.916 152.677C566.549 153.249 564.418 153.987 563.902 155.181C550.275 148.937 544.545 149.835 529.899 149.875C521.354 149.94 512.809 149.911 504.265 149.789Z" fill="#7DAAB2" style="fill:#7DAAB2;fill:color(display-p3 0.4902 0.6667 0.6980);fill-opacity:1;"/>
<path d="M609.874 641.845C612.329 626.653 621.518 613.378 634.892 605.715C648.265 598.049 664.386 596.818 678.775 602.358C683.014 603.994 687.019 606.183 690.68 608.871C705.892 620.046 713.692 638.682 710.963 657.337C708.234 675.987 695.427 691.623 677.647 697.996C672.635 699.792 667.369 700.797 662.044 700.972C646.774 701.475 632.077 695.137 621.983 683.692C611.884 672.248 607.442 656.9 609.874 641.845Z" fill="url(#paint0_linear_60_7969)"/>
<path d="M609.874 641.845L610.128 645.163C611.119 642.865 609.57 642.854 611.174 641.798C613.977 642.055 615.796 643.376 618.7 643.983C627.077 645.728 637.62 646.994 646.216 646.387C648.347 646.722 657.661 647.863 658.968 650.095C663.641 658.065 665.37 670.698 664.035 679.762C663.149 685.788 657.833 695.612 658.141 699.55C659.581 701.369 660.92 699.811 662.044 700.972C646.774 701.475 632.077 695.137 621.983 683.692C611.884 672.248 607.442 656.9 609.874 641.845Z" fill="#57719F" style="fill:#57719F;fill:color(display-p3 0.3412 0.4431 0.6235);fill-opacity:1;"/>
<path d="M678.775 602.357C683.014 603.994 687.019 606.183 690.68 608.871C689.349 609.007 688.885 608.594 687.768 607.99L687.023 608.025C683.537 614.492 680.239 622.021 677.19 628.811C675.558 632.441 671.116 639.998 670.343 642.955C666.03 659.459 669.301 677.199 673.72 693.349C674.317 695.523 674.742 695.336 674.137 697.455L674.43 698.016C675.429 697.984 676.683 697.903 677.647 697.996C672.635 699.792 667.369 700.797 662.044 700.972C660.92 699.811 659.581 701.369 658.141 699.55C657.833 695.612 663.149 685.788 664.035 679.762C665.37 670.697 663.641 658.065 658.968 650.095C657.661 647.863 648.347 646.722 646.216 646.387C654.257 640.824 657.766 639.998 664.703 632.25C671.413 625.258 676.136 615.368 675.48 605.536C675.348 603.557 676.663 602.591 678.607 602.965L678.775 602.357Z" fill="#919182" style="fill:#919182;fill:color(display-p3 0.5686 0.5686 0.5098);fill-opacity:1;"/>
<path d="M370.468 317.894L371.168 317.744C370.093 316.266 359.597 306.146 357.555 304.13C358.28 303.46 358.527 303.478 359.497 303.336C361.535 301.013 358.38 288.352 362.92 285.053L364.575 285.665C365.37 285.254 365.817 285.042 366.649 284.716C370.179 287.026 380.211 298.355 384.007 301.632C385.209 302.67 386.825 304.806 388.243 305.817L388.402 305.076C394.288 310.194 399.956 316.838 405.623 322.436L456.049 373.057L485.735 402.797C486.906 403.99 494.022 410.944 494.565 411.755L494.299 412.575C491.774 410.266 489.802 407.002 486.89 407.05C486.305 407.437 483.592 410.336 482.94 410.861C482.315 411.363 480.813 415.749 480.848 416.469C481.035 420.173 477.674 421.872 477.182 423.893C478.427 426.764 481.578 426.92 481.82 429.954C457.938 406.916 433.99 382.189 410.479 358.673L386.376 334.479C381.655 329.772 374.442 322.961 370.468 317.894Z" fill="#7DAAB2" style="fill:#7DAAB2;fill:color(display-p3 0.4902 0.6667 0.6980);fill-opacity:1;"/>
<defs>
<linearGradient id="paint0_linear_60_7969" x1="660.361" y1="598.935" x2="660.361" y2="701" gradientUnits="userSpaceOnUse">
<stop stop-color="#E6A75C" style="stop-color:#E6A75C;stop-color:color(display-p3 0.9020 0.6549 0.3608);stop-opacity:1;"/>
<stop offset="1" stop-color="#805D33" style="stop-color:#805D33;stop-color:color(display-p3 0.5020 0.3645 0.2008);stop-opacity:1;"/>
</linearGradient>
</defs>
</svg>
